<svg version="1.0" xmlns="http://www.w3.org/2000/svg" width="108.000000pt" height="74.000000pt" viewBox="0 0 108.000000 74.000000" preserveAspectRatio="xMidYMid meet">
  <g transform="translate(0.000000,74.000000) scale(0.100000,-0.100000)" fill="#2165ab" stroke="none">
    <path d="M636 684 c-33 -14 -83 -28 -113 -31 -60 -7 -60 -18 0 -34 37 -10 52 -8 129 17 80 25 89 26 124 13 48 -18 71 -52 79 -116 l7 -53 -34 0 c-41 0 -116 -45 -145 -86 -79 -114 -46 -273 66 -320 69 -29 180 -9 221 41 21 25 5 28 -31 6 -22 -14 -51 -21 -84 -21 -90 0 -155 76 -155 183 0 58 31 131 64 152 54 35 136 12 171 -47 21 -36 38 -25 33 22 -2 25 -11 38 -33 51 -16 10 -37 18 -45 18 -12 1 -15 16 -16 69 0 42 -7 79 -17 99 -35 67 -119 80 -221 37z m159 4 c14 -6 25 -15 25 -19 0 -9 -60 9 -74 22 -14 13 18 11 49 -3z" fill="#2165ab"/>
    <path d="M232 680 c-52 -32 -66 -78 -54 -180 14 -127 79 -252 196 -377 59 -63 87 -67 38 -6 -31 40 -86 139 -113 208 -29 71 -39 106 -45 171 -11 101 27 138 101 98 126 -69 203 -92 268 -80 47 9 48 26 2 26 -40 0 -77 16 -180 80 -58 36 -155 80 -175 80 -3 0 -20 -9 -38 -20z m61 -30 c3 -10 2 -19 -2 -18 -22 2 -41 -3 -36 -11 3 -5 1 -12 -4 -15 -5 -3 -12 1 -15 10 -7 18 19 48 34 39 5 -3 10 -1 10 4 0 18 7 13 13 -9z" fill="#2165ab"/>
    <path d="M681 611 c-9 -6 6 -8 39 -8 43 1 56 -3 71 -22 11 -13 19 -32 19 -42 0 -10 5 -19 10 -19 24 0 -8 73 -39 90 -24 12 -81 13 -100 1z" fill="#91876a"/>
    <path d="M471 458 c-26 -68 -81 -244 -81 -258 0 -9 6 -25 14 -36 14 -18 15 -18 21 11 23 99 63 220 71 212 3 -3 15 -76 27 -163 22 -158 22 -159 48 -162 17 -2 29 3 32 12 6 15 -65 375 -78 396 -11 18 -45 11 -54 -12z" fill="#91876a"/>
    <path d="M167 380 c-3 -8 -13 -69 -22 -134 -20 -139 -28 -166 -55 -173 -38 -10 -20 -21 28 -15 26 2 48 5 49 6 1 1 10 61 18 133 14 114 14 134 2 164 -10 23 -16 29 -20 19z" fill="#91876a"/>
  </g>
</svg>
